<?xml version="1.0" standalone="no"?>
<!DOCTYPE svg PUBLIC "-//W3C//DTD SVG 20010904//EN"
 "http://www.w3.org/TR/2001/REC-SVG-20010904/DTD/svg10.dtd">
<svg version="1.0" xmlns="http://www.w3.org/2000/svg"
 width="240.000000pt" height="240.000000pt" viewBox="0 0 240.000000 240.000000"
 preserveAspectRatio="xMidYMid meet">
<metadata>
Created by potrace 1.11, written by Peter Selinger 2001-2013
</metadata>
<g transform="translate(0.000000,240.000000) scale(0.100000,-0.100000)"
fill="#000000" stroke="none">
<path d="M998 2260 c-108 -22 -173 -44 -259 -85 -262 -125 -481 -374 -568
-646 -56 -174 -63 -416 -17 -594 29 -110 92 -251 157 -347 54 -80 196 -223
275 -276 133 -89 308 -159 448 -180 108 -15 316 -7 416 18 111 26 274 100 368
166 149 104 289 274 366 443 62 138 88 254 91 412 5 245 -52 441 -185 640 -55
81 -197 223 -276 277 -124 83 -284 150 -424 177 -83 16 -304 13 -392 -5z"/>
</g>
</svg>
